<?xml version="1.0" encoding="UTF-8" standalone="no"?>
<!-- Created with Inkscape (http://www.inkscape.org/) -->

<svg
   xmlns:dc="http://purl.org/dc/elements/1.1/"
   xmlns:cc="http://creativecommons.org/ns#"
   xmlns:rdf="http://www.w3.org/1999/02/22-rdf-syntax-ns#"
   xmlns:svg="http://www.w3.org/2000/svg"
   xmlns="http://www.w3.org/2000/svg"
   xmlns:sodipodi="http://sodipodi.sourceforge.net/DTD/sodipodi-0.dtd"
   xmlns:inkscape="http://www.inkscape.org/namespaces/inkscape"
   width="21.392855mm"
   height="15.130438mm"
   viewBox="0 0 75.801453 53.611787"
   id="svg4276"
   version="1.1"
   inkscape:version="0.91 r13725"
   sodipodi:docname="AwarenessLink.svg">
  <defs
     id="defs4278">
    <marker
       inkscape:isstock="true"
       style="overflow:visible"
       id="Arrow1Lstart"
       refX="0"
       refY="0"
       orient="auto"
       inkscape:stockid="Arrow1Lstart">
      <path
         transform="matrix(0.8,0,0,0.8,10,0)"
         style="fill-rule:evenodd;stroke:#000000;stroke-width:1pt"
         d="M 0,0 5,-5 -12.5,0 5,5 0,0 Z"
         id="path4257"
         inkscape:connector-curvature="0" />
    </marker>
  </defs>
  <sodipodi:namedview
     id="base"
     pagecolor="#ffffff"
     bordercolor="#666666"
     borderopacity="1.0"
     inkscape:pageopacity="0.0"
     inkscape:pageshadow="2"
     inkscape:zoom="3.45"
     inkscape:cx="-115.83498"
     inkscape:cy="42.215301"
     inkscape:document-units="px"
     inkscape:current-layer="layer1"
     showgrid="false"
     fit-margin-top="0"
     fit-margin-left="0"
     fit-margin-right="0"
     fit-margin-bottom="0"
     inkscape:window-width="1920"
     inkscape:window-height="1017"
     inkscape:window-x="-8"
     inkscape:window-y="-8"
     inkscape:window-maximized="1" />
  <metadata
     id="metadata4281">
    <rdf:RDF>
      <cc:Work
         rdf:about="">
        <dc:format>image/svg+xml</dc:format>
        <dc:type
           rdf:resource="http://purl.org/dc/dcmitype/StillImage" />
        <dc:title />
      </cc:Work>
    </rdf:RDF>
  </metadata>
  <g
     inkscape:label="Camada 1"
     inkscape:groupmode="layer"
     id="layer1"
     transform="translate(-255.68003,-1137.7038)">
    <path
       style="fill:none;fill-rule:evenodd;stroke:#000000;stroke-width:1px;stroke-linecap:butt;stroke-linejoin:miter;stroke-opacity:1"
       d="m 255.96721,1190.9063 74.9988,-52.6218"
       id="path3336-9-4"
       inkscape:connector-curvature="0" />
    <g
       transform="translate(-137.007,992.19086)"
       id="g4755">
      <path
         inkscape:connector-curvature="0"
         id="path4751"
         d="m 451.22498,147.77099 8.40588,-0.8802 8.40089,-0.88056"
         style="fill:none;stroke:#000000;stroke-opacity:1" />
      <path
         inkscape:connector-curvature="0"
         id="path3352-6-0"
         d="m 468.03175,146.01023 -3.43732,7.71616 -3.43422,7.71344"
         style="fill:none;stroke:#000000;stroke-opacity:1" />
    </g>
    <path
       style="fill:#ffffff;fill-opacity:1;fill-rule:nonzero;stroke:#000000;stroke-width:0;stroke-miterlimit:4;stroke-dasharray:none;stroke-dashoffset:0;stroke-opacity:1"
       d=""
       id="path4150"
       inkscape:connector-curvature="0"
       transform="translate(255.68003,1137.7038)" />
    <path
       style="fill:#ffffff;fill-opacity:1;fill-rule:nonzero;stroke:#000000;stroke-width:0;stroke-miterlimit:4;stroke-dasharray:none;stroke-dashoffset:0;stroke-opacity:1"
       d=""
       id="path4154"
       inkscape:connector-curvature="0"
       transform="translate(255.68003,1137.7038)" />
    <path
       style="fill:#ffffff;fill-opacity:1;fill-rule:nonzero;stroke:#000000;stroke-width:0;stroke-miterlimit:4;stroke-dasharray:none;stroke-dashoffset:0;stroke-opacity:1"
       d="m 18.048983,31.230337 c -0.405393,-0.618708 -0.402156,-0.623146 0.664015,-0.910236 2.286108,-0.615584 4.483499,-2.350098 4.483499,-3.539055 0,-0.590468 -1.06784,-1.7475 -1.61279,-1.7475 -0.205183,0 -1.297701,0.340926 -2.42782,0.757614 -2.65514,0.978982 -3.52062,0.97701 -4.645427,-0.01058 -2.232987,-1.960589 -1.010223,-4.831652 2.838764,-6.66545 1.523324,-0.725767 1.563904,-0.731089 1.925894,-0.252539 0.527008,0.696702 0.486064,0.795413 -0.459339,1.107424 -2.464286,0.813288 -4.283585,2.748234 -3.728808,3.965838 0.517082,1.134871 1.217156,1.205332 3.524188,0.354702 3.234592,-1.192631 4.828194,-0.984971 5.723202,0.745784 0.816122,1.578206 0.335475,3.133292 -1.437502,4.650895 -1.087739,0.931064 -3.410204,2.164846 -4.075096,2.164846 -0.200971,0 -0.548722,-0.279783 -0.77278,-0.621739 z"
       id="path4156"
       inkscape:connector-curvature="0"
       transform="translate(255.68003,1137.7038)" />
    <path
       style="fill:#ffffff;fill-opacity:1;fill-rule:nonzero;stroke:#000000;stroke-width:0;stroke-miterlimit:4;stroke-dasharray:none;stroke-dashoffset:0;stroke-opacity:1"
       d="M 11.253302,30.516709 8.0226717,25.917429 8.566494,25.475488 c 0.2991022,-0.243068 0.6211166,-0.441942 0.7155876,-0.441942 0.094471,0 1.6265714,2.053396 3.4046674,4.563101 3.12167,4.406102 3.217718,4.57988 2.791575,5.050763 -0.24273,0.268214 -0.565767,0.483368 -0.71786,0.47812 -0.152093,-0.0052 -1.730316,-2.079218 -3.507162,-4.608821 z"
       id="path4158"
       inkscape:connector-curvature="0"
       transform="translate(255.68003,1137.7038)" />
    <path
       style="fill:#ffffff;fill-opacity:1;fill-rule:nonzero;stroke:#000000;stroke-width:0;stroke-miterlimit:4;stroke-dasharray:none;stroke-dashoffset:0;stroke-opacity:1"
       d=""
       id="path4160"
       inkscape:connector-curvature="0"
       transform="translate(255.68003,1137.7038)" />
    <path
       style="fill:#ff0000;fill-opacity:0.18139277;fill-rule:nonzero;stroke:#000000;stroke-width:0;stroke-miterlimit:4;stroke-dasharray:none;stroke-dashoffset:0;stroke-opacity:1"
       d="M 0.35195324,53.081714 C 0.17821016,52.800591 -2.1672569,54.468502 39.936897,24.93201 58.519595,11.896058 73.686578,1.1932359 73.641303,1.1479615 c -0.04527,-0.045274 -3.203229,0.2510107 -7.017681,0.6584112 -8.138888,0.8692699 -8.071786,0.8661735 -8.071786,0.3724721 0,-0.2205898 0.237325,-0.3842888 0.568211,-0.3919313 0.312516,-0.00722 4.034297,-0.3825427 8.270624,-0.83405427 7.169015,-0.76407998 7.717366,-0.79127516 7.918351,-0.3927044 0.155952,0.30926747 -0.679739,2.45264407 -3.008315,7.71571837 -1.773341,4.0081208 -3.291989,7.3679918 -3.374776,7.4663808 -0.08279,0.09839 -0.274436,0.09839 -0.425883,0 -0.180289,-0.117126 0.765378,-2.518133 2.739021,-6.9542464 C 72.896982,5.0615605 74.215087,1.9797107 74.168193,1.9394525 74.1213,1.8991944 57.604818,13.438866 37.464902,27.583168 17.324986,41.727471 0.76834769,53.304071 0.67237294,53.308948 c -0.0959748,0.0049 -0.24016361,-0.09738 -0.3204197,-0.227234 z"
       id="path4178"
       inkscape:connector-curvature="0"
       transform="translate(255.68003,1137.7038)" />
    <path
       style="fill:#ff0000;fill-opacity:0.18139277;fill-rule:nonzero;stroke:#000000;stroke-width:0;stroke-miterlimit:4;stroke-dasharray:none;stroke-dashoffset:0;stroke-opacity:1"
       d="M 0.36505644,53.102915 C 0.20271028,52.840232 1.5057486,51.898068 19.155887,39.516156 61.584461,9.7516919 73.707008,1.2136649 73.63754,1.1441983 73.595197,1.101854 70.285271,1.4133246 66.28215,1.8363553 61.078493,2.3862528 58.926141,2.5278945 58.731492,2.3332477 58.581754,2.183508 58.508483,2.0124457 58.568673,1.9531094 58.783947,1.7408817 74.666024,0.21225473 75.065012,0.36536055 c 0.359804,0.13807 0.322201,0.38543423 -0.322469,2.12131145 -0.696651,1.8758528 -4.828238,11.263855 -5.63189,12.797075 -0.64819,1.236626 -0.732636,0.307114 -0.114961,-1.265406 0.320908,-0.816988 1.635028,-3.852646 2.92027,-6.7459061 1.285243,-2.8932605 2.29859,-5.2914915 2.251885,-5.3294022 C 74.121143,1.905122 65.275664,8.0574335 54.511226,15.614836 20.553373,39.455668 0.73780113,53.317817 0.61582057,53.317817 c -0.064871,0 -0.17771483,-0.09671 -0.25076413,-0.214902 z"
       id="path4180"
       inkscape:connector-curvature="0"
       transform="translate(255.68003,1137.7038)" />
    <path
       style="fill:#ff0000;fill-opacity:0.18139277;fill-rule:nonzero;stroke:#000000;stroke-width:0;stroke-miterlimit:4;stroke-dasharray:none;stroke-dashoffset:0;stroke-opacity:1"
       d="M 0.51752649,53.037298 C 0.67912902,52.544242 2.3274578,51.368053 35.570866,28.024479 73.600382,1.3200937 73.725259,1.2319174 73.638507,1.1451654 73.59821,1.1048686 70.897489,1.3462165 67.636901,1.6814941 61.336728,2.3293243 58.28905,2.4623382 58.690732,2.0719437 58.822683,1.9437002 61.942161,1.5455747 65.622904,1.1872204 69.303647,0.82886607 72.912195,0.47099559 73.641899,0.39195262 74.704855,0.27681116 74.99888,0.3270566 75.12076,0.64467346 75.204428,0.86271289 74.858219,2.0771504 74.351402,3.3434236 72.956129,6.8294885 69.155188,15.276808 68.85294,15.563366 68.215107,16.168083 69.027227,13.947682 71.562265,8.1558385 73.041512,4.7761783 74.213809,1.9802491 74.167368,1.9426626 74.120928,1.9050761 71.810088,3.4674403 69.032169,5.4145833 66.254249,7.361726 51.878516,17.44015 37.086095,27.811082 11.486556,45.758856 1.5244363,52.713993 0.75097572,53.178752 0.51043378,53.323289 0.43814615,53.279489 0.51752649,53.037298 Z"
       id="path4182"
       inkscape:connector-curvature="0"
       transform="translate(255.68003,1137.7038)" />
    <path
       style="fill:#ff0000;fill-opacity:0.18139277;fill-rule:nonzero;stroke:#000000;stroke-width:0;stroke-miterlimit:4;stroke-dasharray:none;stroke-dashoffset:0;stroke-opacity:1"
       d="m 0.4680653,53.090932 c 0,-0.372555 1.3188923,-1.312767 35.9866837,-25.654208 C 67.560614,5.5962345 73.727272,1.2339294 73.631302,1.13796 73.585179,1.0918367 70.770053,1.3334589 67.375463,1.6748982 60.756615,2.3406448 58.555076,2.4457697 58.94327,2.0775409 59.075222,1.9523758 62.25152,1.5541107 66.001711,1.1925074 69.751903,0.8309041 73.217988,0.48234589 73.704124,0.41793359 74.871323,0.26328143 75.323684,0.55909453 75.093619,1.3265675 74.73777,2.5136342 71.137301,10.818955 69.907082,13.290523 67.905142,17.312515 68.71285,14.855896 71.592403,8.1646847 73.050778,4.7758616 74.207754,1.9704399 74.163461,1.9304141 74.119171,1.8903883 68.457645,5.7988039 61.582294,10.615782 -1.9385061,55.119447 0.4680653,53.446849 0.4680653,53.090932 Z"
       id="path4184"
       inkscape:connector-curvature="0"
       transform="translate(255.68003,1137.7038)" />
    <path
       style="fill:#ff0000;fill-opacity:0.18139277;fill-rule:nonzero;stroke:#000000;stroke-width:0;stroke-miterlimit:4;stroke-dasharray:none;stroke-dashoffset:0;stroke-opacity:1"
       d="M 0.59433437,52.881517 C 1.0725941,52.392729 5.6686038,49.091089 14.989008,42.540798 20.128159,38.92905 34.276608,28.985758 46.430006,20.444594 71.386978,2.9053333 73.732345,1.239004 73.620042,1.1267003 73.575984,1.0826426 70.650595,1.3297108 67.119175,1.6757408 60.288347,2.3450666 58.421587,2.4369184 59.056913,2.0724351 59.561612,1.782891 72.602303,0.48456343 73.998058,0.58489882 75.005264,0.65730294 75.085894,0.71424896 75.003436,1.2949613 74.898971,2.0306435 71.756351,9.424256 70.065787,12.911715 68.258841,16.639264 68.943051,14.442301 71.34682,8.7983827 72.542492,5.9910127 73.683532,3.3095595 73.882467,2.8395976 74.206089,2.0750647 74.202604,2.001069 73.849359,2.136622 73.632219,2.219947 58.708819,12.613646 40.686248,25.23373 2.1428488,52.223276 1.3161591,52.798083 0.76559106,52.991068 0.47931843,53.091412 0.42374531,53.055862 0.59433437,52.881517 Z"
       id="path4186"
       inkscape:connector-curvature="0"
       transform="translate(255.68003,1137.7038)" />
    <path
       style="fill:#ff0000;fill-opacity:0.18139277;fill-rule:nonzero;stroke:#000000;stroke-width:0;stroke-miterlimit:4;stroke-dasharray:none;stroke-dashoffset:0;stroke-opacity:1"
       d="M 1.1017749,52.556377 C 1.321979,52.200078 6.7416861,48.356534 37.591171,26.678842 68.740058,4.7907618 73.74024,1.2468971 73.629863,1.1365201 73.585479,1.0921379 70.544105,1.3367809 66.871251,1.680171 63.198396,2.0235612 59.909229,2.2974477 59.561989,2.2888078 58.955481,2.2737169 58.95194,2.2645046 59.472027,2.0546303 60.09488,1.8032856 72.099055,0.53734688 73.859562,0.53734688 l 1.173337,0 -0.141295,0.87071132 C 74.745574,2.3079316 71.418414,10.206629 70.152309,12.659177 68.80615,15.266789 69.40817,13.3606 71.420301,8.6443054 74.549811,1.3089428 74.307317,1.9608874 73.839465,2.1404194 73.61688,2.2258329 60.227649,11.541337 44.085619,22.841539 7.5222547,48.437661 1.2439628,52.812741 1.0765846,52.812741 c -0.073288,0 -0.061952,-0.115365 0.02519,-0.256364 z"
       id="path4188"
       inkscape:connector-curvature="0"
       transform="translate(255.68003,1137.7038)" />
    <path
       style="fill:#ff0000;fill-opacity:0.18139277;fill-rule:nonzero;stroke:#000000;stroke-width:0;stroke-miterlimit:4;stroke-dasharray:none;stroke-dashoffset:0;stroke-opacity:1"
       d="m 1.2256797,52.447775 c 0,-0.175511 5.5348124,-4.097696 37.5019133,-26.575325 C 71.349449,2.9344293 73.735863,1.2425217 73.624658,1.1313153 73.583138,1.0897958 70.544105,1.3367809 66.871251,1.680171 63.198396,2.0235612 59.909229,2.2956793 59.561989,2.2848781 l -0.631346,-0.019639 0.631346,-0.2182778 c 0.72658,-0.2512035 9.022175,-1.16725756 12.830586,-1.41683749 2.558764,-0.16768579 2.57424,-0.16524738 2.57424,0.40559839 0,1.0046001 -5.302063,13.2686628 -5.491144,12.7014208 -0.04619,-0.138557 0.988339,-2.795857 2.298946,-5.9051104 C 73.085224,4.722779 74.115148,2.1343001 74.063337,2.079857 73.940444,1.9507195 75.16228,1.1029041 37.338633,27.562645 -1.0231737,54.39886 1.2256797,52.849192 1.2256797,52.447775 Z"
       id="path4190"
       inkscape:connector-curvature="0"
       transform="translate(255.68003,1137.7038)" />
    <path
       style="fill:#ff0000;fill-opacity:0.18139277;fill-rule:nonzero;stroke:#000000;stroke-width:0;stroke-miterlimit:4;stroke-dasharray:none;stroke-dashoffset:0;stroke-opacity:1"
       d="M 1.8505272,51.928264 C 2.6824222,51.248479 9.1762651,46.663127 45.546122,21.074469 72.944161,1.7980922 73.731914,1.2385718 73.624476,1.1311338 73.583058,1.0897141 70.544105,1.3367809 66.871251,1.680171 63.198396,2.0235612 59.909229,2.2956793 59.561989,2.2848781 l -0.631346,-0.019639 0.631346,-0.2182778 c 0.72658,-0.2512035 9.022175,-1.16725756 12.830586,-1.41683749 2.558764,-0.16768579 2.57424,-0.16524738 2.57424,0.40559839 0,1.0046001 -5.302063,13.2686628 -5.491144,12.7014208 -0.04619,-0.138557 0.988339,-2.795857 2.298946,-5.9051104 C 73.085224,4.722779 74.115148,2.1343001 74.063337,2.079857 73.941748,1.9520885 75.398173,0.94145431 37.338633,27.563614 19.351604,40.145309 3.9309164,50.916599 3.0704378,51.499813 1.3630862,52.657021 0.65388255,52.906102 1.8505272,51.928264 Z"
       id="path4192"
       inkscape:connector-curvature="0"
       transform="translate(255.68003,1137.7038)" />
    <path
       style="fill:#ff0000;fill-opacity:0.18139277;fill-rule:nonzero;stroke:#000000;stroke-width:0;stroke-miterlimit:4;stroke-dasharray:none;stroke-dashoffset:0;stroke-opacity:1"
       d="m 1.2256797,52.441058 c 0,-0.159056 5.0222898,-3.715783 39.6484873,-28.078589 C 73.17765,1.6339121 73.733186,1.2398438 73.624476,1.1311338 73.583058,1.0897141 70.544105,1.3367809 66.871251,1.680171 63.198396,2.0235612 59.909229,2.2944019 59.561989,2.2820393 58.972466,2.2610509 58.98083,2.2451638 59.688258,2.042214 60.618363,1.7753809 68.831712,0.86310824 72.417922,0.62830513 L 75.046064,0.45623063 74.905393,1.3230806 C 74.762797,2.2018034 71.423412,10.208959 70.299562,12.366911 69.013423,14.836485 69.760976,12.576803 71.915553,7.4821456 73.149099,4.5653301 74.121739,2.1402522 74.076977,2.0930834 73.955428,1.9650042 73.335449,2.3947479 38.980131,26.420756 3.1658744,51.467056 1.5934197,52.560203 1.3793771,52.560203 c -0.084533,0 -0.1536974,-0.05362 -0.1536974,-0.119145 z"
       id="path4194"
       inkscape:connector-curvature="0"
       transform="translate(255.68003,1137.7038)" />
    <path
       style="fill:#ff0000;fill-opacity:0.18139277;fill-rule:nonzero;stroke:#000000;stroke-width:0;stroke-miterlimit:4;stroke-dasharray:none;stroke-dashoffset:0;stroke-opacity:1"
       d="m 1.2256797,52.441058 c 0,-0.1582 4.8958199,-3.625496 39.6484873,-28.079672 C 73.013183,1.7463408 73.730891,1.2375482 73.632166,1.1388242 73.594977,1.1016343 70.556024,1.3478774 66.87894,1.6860312 63.201856,2.0241849 59.909229,2.2915649 59.561989,2.280209 58.973481,2.2609628 58.98205,2.2448141 59.688258,2.042214 60.618363,1.7753809 68.831712,0.86310824 72.417922,0.62830513 L 75.046064,0.45623063 74.905393,1.3230806 C 74.762797,2.2018034 71.423412,10.208959 70.299562,12.366911 69.013423,14.836485 69.760976,12.576803 71.915553,7.4821456 73.149099,4.5653301 74.121739,2.1402522 74.076977,2.0930834 73.956867,1.9665214 73.598935,2.2147195 37.71744,27.30544 19.522068,40.028851 3.9309164,50.916205 3.0704378,51.49956 1.5590788,52.52417 1.2256797,52.694326 1.2256797,52.441058 Z"
       id="path4196"
       inkscape:connector-curvature="0"
       transform="translate(255.68003,1137.7038)" />
    <path
       style="fill:#ff0000;fill-opacity:0.18139277;fill-rule:nonzero;stroke:#000000;stroke-width:0;stroke-miterlimit:4;stroke-dasharray:none;stroke-dashoffset:0;stroke-opacity:1"
       d="m 1.2256797,52.441058 c 0,-0.158978 5.0105839,-3.707705 39.6484873,-28.080892 C 76.045774,-0.38856667 73.436601,1.4638121 73.444869,1.2366579 73.448569,1.1351431 72.968607,1.1096011 72.378299,1.1798979 70.408449,1.4144781 60.226965,2.305341 59.701392,2.2891062 l -0.51821,-0.016008 0.520923,-0.2109001 c 0.607273,-0.245859 8.942047,-1.18655704 12.68847,-1.43207469 2.475109,-0.16220362 2.57424,-0.14892987 2.57424,0.34469675 0,0.99506344 -5.055743,12.80584084 -5.242219,12.24640884 -0.05185,-0.155553 0.921438,-2.703726 2.162867,-5.6626047 C 73.12889,4.599746 74.111077,2.1402522 74.070098,2.0930834 73.960435,1.9668594 73.547096,2.2534779 38.980131,26.4252 3.3197837,51.361498 1.5951918,52.560203 1.3793771,52.560203 c -0.084533,0 -0.1536974,-0.05362 -0.1536974,-0.119145 z"
       id="path4198"
       inkscape:connector-curvature="0"
       transform="translate(255.68003,1137.7038)" />
    <path
       style="fill:#ff0000;fill-opacity:0.18139277;fill-rule:nonzero;stroke:#000000;stroke-width:0;stroke-miterlimit:4;stroke-dasharray:none;stroke-dashoffset:0;stroke-opacity:1"
       d="m 1.2256797,52.441058 c 0,-0.158978 5.0105839,-3.707705 39.6484873,-28.080892 C 76.045774,-0.38856667 73.436601,1.4638121 73.444869,1.2366579 73.448569,1.1351431 72.968607,1.1096011 72.378299,1.1798979 70.408449,1.4144781 60.226965,2.305341 59.701392,2.2891062 l -0.51821,-0.016008 0.520923,-0.2109001 c 0.607273,-0.245859 8.942047,-1.18655704 12.68847,-1.43207469 2.475109,-0.16220362 2.57424,-0.14892987 2.57424,0.34469675 0,0.99506344 -5.055743,12.80584084 -5.242219,12.24640884 -0.05185,-0.155553 0.921438,-2.703726 2.162867,-5.6626047 C 73.12889,4.599746 74.110304,2.1394801 74.06838,2.0913677 73.964256,1.97187 75.40684,0.97111511 39.358938,26.170124 3.3886024,51.314912 1.5964283,52.560203 1.3793771,52.560203 c -0.084533,0 -0.1536974,-0.05362 -0.1536974,-0.119145 z"
       id="path4200"
       inkscape:connector-curvature="0"
       transform="translate(255.68003,1137.7038)" />
    <path
       style="fill:#ff0000;fill-opacity:0.18139277;fill-rule:nonzero;stroke:#000000;stroke-width:0;stroke-miterlimit:4;stroke-dasharray:none;stroke-dashoffset:0;stroke-opacity:1"
       d="M 1.857025,51.922468 C 2.273713,51.581706 8.9786004,46.821387 16.756775,41.343981 38.173254,26.26246 72.504283,2.0659312 73.057543,1.6631709 73.326954,1.4670451 73.497417,1.2609158 73.436351,1.2051059 73.375281,1.1492959 70.427442,1.3704346 66.885595,1.6965252 63.343747,2.0226158 60.161767,2.2857455 59.814527,2.281258 57.10206,2.246204 66.442784,1.0200368 72.392575,0.63012411 c 2.475109,-0.16220362 2.57424,-0.14892987 2.57424,0.34469675 0,0.99506344 -5.055743,12.80584114 -5.242219,12.24640914 -0.05185,-0.155553 0.921438,-2.703726 2.162867,-5.662605 C 73.12889,4.599746 74.110304,2.1394801 74.06838,2.0913677 73.964915,1.9726277 75.518222,0.89503997 39.358938,26.170614 1.8356132,52.399659 1.600052,52.563008 1.3162426,52.551121 1.196985,52.546126 1.4403371,52.263233 1.857025,51.922468 Z"
       id="path4202"
       inkscape:connector-curvature="0"
       transform="translate(255.68003,1137.7038)" />
    <path
       style="fill:#ff0000;fill-opacity:0.18139277;fill-rule:nonzero;stroke:#000000;stroke-width:0;stroke-miterlimit:4;stroke-dasharray:none;stroke-dashoffset:0;stroke-opacity:1"
       d="m 1.2256797,52.451136 c 0,-0.173029 2.3940822,-1.870893 37.8200433,-26.821681 C 77.685997,-1.5851963 73.57662,1.3332983 73.436351,1.2051059 73.375282,1.1492959 70.427442,1.3704346 66.885595,1.6965252 63.343747,2.0226158 60.161767,2.2857455 59.814527,2.281258 57.10206,2.2462038 66.442784,1.0200368 72.392575,0.63012411 c 2.475109,-0.16220362 2.57424,-0.14892987 2.57424,0.34469675 0,0.99506344 -5.055743,12.80584114 -5.242219,12.24640914 -0.05185,-0.155553 0.921438,-2.703726 2.162867,-5.662605 C 73.12889,4.599746 74.108483,2.1376593 74.064335,2.0873216 73.96759,1.9770131 76.127324,0.47769573 38.096247,27.056846 3.3044921,51.372099 1.5939937,52.560203 1.3793771,52.560203 c -0.084533,0 -0.1536974,-0.04908 -0.1536974,-0.109067 z"
       id="path4204"
       inkscape:connector-curvature="0"
       transform="translate(255.68003,1137.7038)" />
    <path
       style="fill:#ff0000;fill-opacity:0.18139277;fill-rule:nonzero;stroke:#000000;stroke-width:0;stroke-miterlimit:4;stroke-dasharray:none;stroke-dashoffset:0;stroke-opacity:1"
       d="m 1.9832941,51.935981 c 0,-0.155912 4.5992685,-3.415037 39.2696799,-27.827223 C 76.160414,-0.47032604 73.436661,1.4665976 73.444869,1.216353 73.448563,1.1036705 72.968607,1.0764655 72.378299,1.1558974 70.158956,1.4545326 59.504602,2.3319074 59.397544,2.2248489 59.336139,2.1634443 59.660537,2.0434137 60.118424,1.9581142 61.458437,1.708485 69.683076,0.82905537 72.477827,0.63657017 L 75.045473,0.4597265 74.879992,1.2871284 C 74.702122,2.176484 72.300384,8.0455468 70.846385,11.143949 69.209425,14.632231 69.90707,12.333994 72.03461,7.2296074 73.192464,4.451688 74.107352,2.1402522 74.067693,2.0930834 74.028035,2.0459146 73.276567,2.4945643 72.397762,3.0900826 71.189521,3.9088413 15.991539,42.454647 4.2176849,50.701532 2.3802237,51.988565 1.9832941,52.207859 1.9832941,51.935981 Z"
       id="path4206"
       inkscape:connector-curvature="0"
       transform="translate(255.68003,1137.7038)" />
    <path
       style="fill:#ff0000;fill-opacity:0.18139277;fill-rule:nonzero;stroke:#000000;stroke-width:0;stroke-miterlimit:4;stroke-dasharray:none;stroke-dashoffset:0;stroke-opacity:1"
       d="M 2.4883704,51.512576 C 3.1606274,50.952762 11.679845,44.931816 42.641934,23.1341 59.111807,11.539093 71.160318,3.0329035 73.057543,1.6608309 73.326954,1.4659921 73.497417,1.2569018 73.436351,1.1961857 73.375282,1.1354697 70.370621,1.3568327 66.759326,1.6881035 63.14803,2.0193743 59.96605,2.2834724 59.688258,2.274988 57.582398,2.2106704 66.83911,1.0268513 72.544146,0.630879 L 75.045973,0.45723354 74.880242,1.2858819 C 74.702165,2.1762647 72.301237,8.0437262 70.846385,11.143949 69.209425,14.632231 69.90707,12.333994 72.03461,7.2296074 73.192464,4.451688 74.106579,2.1394801 74.065979,2.0913677 73.96517,1.9719124 75.320613,1.0322355 40.242821,25.53969 23.019721,37.572784 7.4313162,48.461387 5.6019224,49.736584 c -3.0814401,2.14795 -4.6012635,3.014868 -3.113552,1.775992 z"
       id="path4208"
       inkscape:connector-curvature="0"
       transform="translate(255.68003,1137.7038)" />
    <path
       style="fill:#ff0000;fill-opacity:0.18139277;fill-rule:nonzero;stroke:#000000;stroke-width:0;stroke-miterlimit:4;stroke-dasharray:none;stroke-dashoffset:0;stroke-opacity:1"
       d=""
       id="path4210"
       inkscape:connector-curvature="0"
       transform="translate(255.68003,1137.7038)" />
    <path
       style="fill:#ff0000;fill-opacity:0.18139277;fill-rule:nonzero;stroke:#000000;stroke-width:0;stroke-miterlimit:4;stroke-dasharray:none;stroke-dashoffset:0;stroke-opacity:1"
       d=""
       id="path4212"
       inkscape:connector-curvature="0"
       transform="translate(255.68003,1137.7038)" />
    <path
       style="fill:#ff0000;fill-opacity:0.18139277;fill-rule:nonzero;stroke:#000000;stroke-width:0;stroke-miterlimit:4;stroke-dasharray:none;stroke-dashoffset:0;stroke-opacity:1"
       d=""
       id="path4214"
       inkscape:connector-curvature="0"
       transform="translate(255.68003,1137.7038)" />
    <path
       style="fill:#ff0000;fill-opacity:0.18139277;fill-rule:nonzero;stroke:#000000;stroke-width:0;stroke-miterlimit:4;stroke-dasharray:none;stroke-dashoffset:0;stroke-opacity:1"
       d=""
       id="path4216"
       inkscape:connector-curvature="0"
       transform="translate(255.68003,1137.7038)" />
    <path
       style="fill:#ff0000;fill-opacity:0.18139277;fill-rule:nonzero;stroke:#000000;stroke-width:0;stroke-miterlimit:4;stroke-dasharray:none;stroke-dashoffset:0;stroke-opacity:1"
       d="m 1.9832941,51.942699 c 0,-0.169678 4.9894141,-3.707904 38.0950469,-27.01498 C 76.630892,-0.80606054 73.436704,1.4626403 73.444869,1.2288424 73.448563,1.123029 73.025428,1.0942159 72.504568,1.1648133 70.446041,1.4438264 59.501102,2.3284051 59.396882,2.2241868 59.239419,2.0667239 60.483213,1.8596864 64.107675,1.4400441 69.338861,0.83437455 74.694513,0.43340345 74.893622,0.63251342 74.996652,0.73554358 74.81977,1.5682053 74.500549,2.4828729 73.588002,5.0975941 70.081806,13.030172 69.977268,12.71655 c -0.0518,-0.155391 0.86347,-2.589944 2.033932,-5.4101177 1.170461,-2.8201731 2.095003,-5.1669522 2.054534,-5.2150646 -0.04047,-0.048112 -0.621363,0.28602 -1.290879,0.7425163 -0.916699,0.6250314 -56.232568,39.248928 -68.5571701,47.869537 -1.8255168,1.276883 -2.2343908,1.50366 -2.2343908,1.239278 z"
       id="path4218"
       inkscape:connector-curvature="0"
       transform="translate(255.68003,1137.7038)" />
    <path
       style="fill:#ff0000;fill-opacity:0.18139277;fill-rule:nonzero;stroke:#000000;stroke-width:0;stroke-miterlimit:4;stroke-dasharray:none;stroke-dashoffset:0;stroke-opacity:1"
       d="m 2.0780663,51.854342 c 0,-0.149754 3.0626023,-2.318574 40.1449277,-28.429117 C 58.483863,11.975561 72.160081,2.3351421 72.614591,2.0020708 L 73.440968,1.3964867 72.554,1.3065438 c -0.487829,-0.049469 -3.027997,0.1135749 -5.644815,0.3623188 -2.616817,0.248744 -5.263464,0.4370135 -5.88144,0.4183768 -1.090076,-0.032874 -1.080363,-0.041057 0.325684,-0.2743187 2.49784,-0.4143899 9.997672,-1.14107172 11.776605,-1.14107172 1.486731,0 1.701655,0.0705228 1.701655,0.55836112 0,0.5733402 -3.338802,8.8016979 -4.341878,10.7003939 -1.147333,2.171766 -0.523406,0.241821 1.44782,-4.4784208 1.118415,-2.6781215 1.99567,-4.9827427 1.949458,-5.1213806 C 73.840878,2.1921647 68.262768,5.9522614 61.491292,10.686573 14.417429,43.598498 2.3968136,51.976197 2.2474969,51.976197 c -0.093187,0 -0.1694306,-0.05483 -0.1694306,-0.121855 z"
       id="path4171"
       inkscape:connector-curvature="0"
       transform="translate(255.68003,1137.7038)" />
    <path
       style="fill:#ff0000;fill-opacity:0.18139277;fill-rule:nonzero;stroke:#000000;stroke-width:0;stroke-miterlimit:4;stroke-dasharray:none;stroke-dashoffset:0;stroke-opacity:1"
       d="m 2.0780663,51.854342 c 0,-0.149754 3.0626023,-2.318574 40.1449277,-28.429117 C 58.483863,11.975561 72.159945,2.3351421 72.614284,2.0020708 73.431942,1.4026553 73.433565,1.3954656 72.773536,1.2962444 72.406785,1.2411111 69.680779,1.4166549 66.715747,1.6863417 63.750716,1.9560285 61.005139,2.128455 60.614466,2.0695117 59.64275,1.9229023 67.553956,0.9771197 71.57082,0.75968286 c 3.16569,-0.171362 3.260869,-0.15892232 3.260869,0.42618714 0,0.6066697 -3.299121,8.7709271 -4.341878,10.744734 -1.147333,2.171766 -0.523406,0.241821 1.44782,-4.4784208 1.118415,-2.6781215 1.996122,-4.9813893 1.950461,-5.118373 C 73.842431,2.1968265 57.744565,13.310325 38.115058,27.030473 18.485551,40.75062 2.346975,51.976197 2.2515558,51.976197 c -0.095419,0 -0.1734895,-0.05483 -0.1734895,-0.121855 z"
       id="path4173"
       inkscape:connector-curvature="0"
       transform="translate(255.68003,1137.7038)" />
    <path
       style="fill:#ff0000;fill-opacity:0.18139277;fill-rule:nonzero;stroke:#000000;stroke-width:0;stroke-miterlimit:4;stroke-dasharray:none;stroke-dashoffset:0;stroke-opacity:1"
       d="m 2.0780663,51.858461 c 0,-0.1664 -0.4496053,0.152223 36.3768117,-25.779299 C 76.983026,-1.0506442 73.506226,1.4377575 73.081634,1.2962266 72.897794,1.2349464 70.115,1.4106445 66.897646,1.6866669 63.680292,1.9626892 60.790568,2.135097 60.476034,2.0697952 59.69064,1.9067366 67.570974,0.97619854 71.57082,0.75968286 c 3.111223,-0.16841368 3.260869,-0.15029925 3.260869,0.39472454 0,1.0099138 -4.660927,12.0563996 -4.848991,11.4922046 -0.05232,-0.156968 0.823667,-2.485524 1.946641,-5.1745685 C 73.052316,4.7829988 73.934982,2.4744789 73.890823,2.3419991 73.812255,2.1063007 69.531562,5.0708212 24.498209,36.548 12.358273,45.033507 2.3474035,51.976197 2.2518322,51.976197 c -0.095571,0 -0.1737659,-0.05298 -0.1737659,-0.117736 z"
       id="path4175"
       inkscape:connector-curvature="0"
       transform="translate(255.68003,1137.7038)" />
    <path
       style="fill:#ff0000;fill-opacity:0.18139277;fill-rule:nonzero;stroke:#000000;stroke-width:0;stroke-miterlimit:4;stroke-dasharray:none;stroke-dashoffset:0;stroke-opacity:1"
       d="M 2.9169914,51.165484 C 3.4581104,50.734565 18.71898,39.944516 36.830034,27.187599 54.941089,14.430682 70.581118,3.4111675 71.585652,2.6997893 72.590185,1.9884111 73.265516,1.3575207 73.086385,1.2978106 72.815168,1.2074044 64.491942,1.8374423 60.521231,2.2489471 59.904101,2.3129034 59.512797,2.2606889 59.651666,2.1329149 60.188,1.6394294 74.527921,0.25661284 74.933371,0.65928092 75.188556,0.9127142 73.314672,5.8480835 71.254365,10.348926 69.382075,14.439034 69.709321,12.808915 71.759791,7.831253 72.787994,5.3352127 73.717318,3.0155217 73.824956,2.6763846 74.073124,1.8944786 76.883005,-0.02314313 39.179516,26.32039 0.14134384,53.596469 2.4755569,51.978695 2.1815388,51.962585 c -0.13662,-0.0075 0.1943337,-0.366179 0.7354526,-0.797101 z"
       id="path4177"
       inkscape:connector-curvature="0"
       transform="translate(255.68003,1137.7038)" />
    <path
       style="fill:#ff0000;fill-opacity:0.18139277;fill-rule:nonzero;stroke:#000000;stroke-width:0;stroke-miterlimit:4;stroke-dasharray:none;stroke-dashoffset:0;stroke-opacity:1"
       d="M 2.9159333,51.165484 C 3.4564703,50.734565 14.608644,42.839339 27.698542,33.620539 40.78844,24.401739 56.430429,13.38272 62.458518,9.1338304 68.486608,4.8849403 73.270634,1.3592269 73.089689,1.2989114 72.815916,1.2076541 64.512916,1.8352687 60.521231,2.2489471 59.904101,2.3129034 59.512797,2.2606889 59.651666,2.1329149 60.188,1.6394294 74.527921,0.25661284 74.933371,0.65928092 75.188556,0.9127142 73.314672,5.8480835 71.254365,10.348926 c -1.87229,4.090108 -1.545044,2.459989 0.505426,-2.517673 1.028203,-2.4960403 1.9596,-4.8222617 2.069771,-5.1693811 0.239809,-0.755567 2.864,-2.54909323 -36.099322,24.6723921 C 0.27108691,53.504872 2.4740957,51.978617 2.1815388,51.962585 c -0.13662,-0.0075 0.1938575,-0.366179 0.7343945,-0.797101 z"
       id="path4179"
       inkscape:connector-curvature="0"
       transform="translate(255.68003,1137.7038)" />
    <path
       style="fill:#ff0000;fill-opacity:0.18139277;fill-rule:nonzero;stroke:#000000;stroke-width:0;stroke-miterlimit:4;stroke-dasharray:none;stroke-dashoffset:0;stroke-opacity:1"
       d="M 2.9166725,51.165484 C 3.4576161,50.734565 12.84892,44.078979 23.786238,36.375292 34.723556,28.671609 50.364385,17.652314 58.543637,11.887972 66.722889,6.1236298 73.267785,1.3582769 73.087849,1.2982985 72.815498,1.2075151 64.501255,1.836477 60.521231,2.2489471 59.904101,2.3129034 59.512797,2.2606889 59.651666,2.1329149 60.188,1.6394294 74.527921,0.25661284 74.933371,0.65928092 75.188556,0.9127142 73.314672,5.8480835 71.254365,10.348926 c -1.927855,4.211491 -1.516386,2.404355 0.672852,-2.9551225 1.1192,-2.739909 2.034907,-5.0569289 2.034907,-5.148933 0,-0.2162447 -1.071611,0.5258736 -36.231884,25.0914955 C 0.53602804,53.323052 2.4765655,51.97875 2.1815388,51.962585 c -0.13662,-0.0075 0.1941901,-0.366179 0.7351337,-0.797101 z"
       id="path4181"
       inkscape:connector-curvature="0"
       transform="translate(255.68003,1137.7038)" />
    <path
       style="fill:#ff0000;fill-opacity:0.18139277;fill-rule:nonzero;stroke:#000000;stroke-width:0;stroke-miterlimit:4;stroke-dasharray:none;stroke-dashoffset:0;stroke-opacity:1"
       d="M 2.9168255,51.165484 C 3.4578532,50.734565 18.78394,39.900385 36.974797,27.089532 76.398513,-0.67449815 73.737246,1.2515591 72.675559,1.2515591 71.961947,1.2515591 64.88951,1.8484366 60.795916,2.25414 59.999837,2.333037 59.487185,2.286144 59.636495,2.148086 60.183037,1.6427317 74.518724,0.24747697 74.933371,0.65928092 75.188556,0.9127142 73.314672,5.8480835 71.254365,10.348926 69.321165,14.572096 69.740562,12.746953 71.9414,7.359089 73.068397,4.600087 73.950397,2.3026325 73.901397,2.2536347 73.797266,2.1495038 73.989959,2.0158272 36.715747,28.050488 0.51376233,53.336237 2.4744338,51.978634 2.1815388,51.962585 c -0.13662,-0.0075 0.194259,-0.366179 0.7352867,-0.797101 z"
       id="path4183"
       inkscape:connector-curvature="0"
       transform="translate(255.68003,1137.7038)" />
    <path
       style="fill:#ff0000;fill-opacity:0.18139277;fill-rule:nonzero;stroke:#000000;stroke-width:0;stroke-miterlimit:4;stroke-dasharray:none;stroke-dashoffset:0;stroke-opacity:1"
       d="m 2.0780663,51.839446 c 0,-0.174667 5.7949559,-4.284565 37.8260867,-26.827027 C 73.069707,1.671589 73.42613,1.4166338 73.063933,1.2928667 72.770901,1.1927342 62.841359,1.9784094 60.483863,2.2882649 c -0.75135,0.098753 -1.057403,0.053552 -0.869565,-0.1284253 0.15942,-0.1544471 2.768116,-0.5442148 5.797102,-0.8661504 7.784866,-0.82741442 9.375579,-0.92868109 9.572892,-0.6094215 0.185244,0.29972847 -1.812116,5.475105 -3.729927,9.6646583 -1.927855,4.211491 -1.516386,2.404355 0.672852,-2.9551225 1.1192,-2.739909 2.034907,-5.0533999 2.034907,-5.1410908 0,-0.2126247 1.701548,-1.3911332 -35.797101,24.7934353 C 19.99111,39.736634 4.5110869,50.537458 3.764972,51.047979 2.4475594,51.949403 2.0780663,52.122762 2.0780663,51.839446 Z"
       id="path4185"
       inkscape:connector-curvature="0"
       transform="translate(255.68003,1137.7038)" />
    <path
       style="fill:#ff0000;fill-opacity:0.18139277;fill-rule:nonzero;stroke:#000000;stroke-width:0;stroke-miterlimit:4;stroke-dasharray:none;stroke-dashoffset:0;stroke-opacity:1"
       d="m 2.0780663,51.839446 c 0,-0.173052 5.3753814,-3.985765 38.8102867,-27.527812 C 74.490263,0.65199626 73.420066,1.4177272 73.05973,1.2928667 72.770582,1.1926729 62.837991,1.9788518 60.483863,2.2882649 59.732513,2.3870181 59.42646,2.3418174 59.614298,2.1598396 59.773718,2.0053925 62.382414,1.6156248 65.4114,1.2936892 73.103301,0.47615553 74.787872,0.36645532 74.975991,0.67083817 75.066139,0.81669927 74.67313,2.1483363 74.10264,3.6300316 c -1.453745,3.775713 -4.002977,9.3674814 -4.115982,9.0284584 -0.05189,-0.155669 0.821362,-2.524778 1.940559,-5.2646865 1.1192,-2.739909 2.034907,-5.0533999 2.034907,-5.1410908 0,-0.2124029 1.721742,-1.40495917 -35.797101,24.7946913 C 19.99111,39.738365 4.5110869,50.539101 3.764972,51.049037 2.4473571,51.949571 2.0780663,52.122603 2.0780663,51.839446 Z"
       id="path4187"
       inkscape:connector-curvature="0"
       transform="translate(255.68003,1137.7038)" />
    <path
       style="fill:#ff0000;fill-opacity:0.18139277;fill-rule:nonzero;stroke:#000000;stroke-width:0;stroke-miterlimit:4;stroke-dasharray:none;stroke-dashoffset:0;stroke-opacity:1"
       d="M 2.6577764,51.352675 C 3.3452877,50.7794 12.600117,44.238721 51.206742,17.041611 73.033539,1.665341 73.383397,1.4134357 73.069588,1.2998522 c -0.26651,-0.096465 -9.970101,0.6777431 -12.440797,0.9925976 -0.869475,0.1108023 -1.20771,0.069593 -1.014493,-0.1236013 0.15942,-0.159402 2.768116,-0.5532237 5.797102,-0.8751593 7.691901,-0.81753367 9.376472,-0.92723388 9.564591,-0.62285103 0.09015,0.1458611 -0.302861,1.47749813 -0.873351,2.95919343 -1.453745,3.775713 -4.002977,9.3674814 -4.115982,9.0284584 -0.05189,-0.155669 0.821362,-2.524778 1.940559,-5.2646865 1.1192,-2.739909 2.034907,-5.0568625 2.034907,-5.1487855 0,-0.1993863 2.086792,-1.64589606 -37.246377,25.818229 C 19.338936,40.19649 4.5110869,50.540504 3.764972,51.049945 2.2439397,52.08849 1.546719,52.279124 2.6577764,51.352675 Z"
       id="path4189"
       inkscape:connector-curvature="0"
       transform="translate(255.68003,1137.7038)" />
    <path
       style="fill:#ff0000;fill-opacity:0.18139277;fill-rule:nonzero;stroke:#000000;stroke-width:0;stroke-miterlimit:4;stroke-dasharray:none;stroke-dashoffset:0;stroke-opacity:1"
       d="M 2.9204441,51.165484 C 4.0223694,50.291034 12.871435,44.034481 46.860675,20.098428 72.787736,1.8399574 73.195255,1.5474924 72.99231,1.3445478 72.856414,1.2086517 63.510921,1.9251638 60.628791,2.2924498 59.759316,2.4032521 59.421081,2.3620432 59.614298,2.1688485 59.773718,2.0094465 62.382414,1.6153358 65.4114,1.2930469 73.682997,0.41293576 74.771533,0.34001723 74.965014,0.65307362 75.0612,0.80870524 74.67313,2.1483363 74.10264,3.6300316 c -1.448742,3.7627188 -4.00282,9.3679474 -4.115107,9.0310894 -0.05141,-0.154222 0.821846,-2.534587 1.940562,-5.2897007 1.118716,-2.7551136 2.034029,-5.073251 2.034029,-5.1514163 0,-0.170409 1.92718,-1.50767676 -37.246377,25.845217 C 0.5801781,53.296843 2.4830636,51.980472 2.1707691,51.962585 c -0.1306967,-0.0075 0.2066571,-0.366179 0.749675,-0.797101 z"
       id="path4191"
       inkscape:connector-curvature="0"
       transform="translate(255.68003,1137.7038)" />
    <path
       style="fill:#ff0000;fill-opacity:0.18139277;fill-rule:nonzero;stroke:#000000;stroke-width:0;stroke-miterlimit:4;stroke-dasharray:none;stroke-dashoffset:0;stroke-opacity:1"
       d="m 2.0780663,51.847156 c 0,-0.191446 6.0227162,-4.468437 35.9420287,-25.52398 C 75.943101,-0.36492111 73.71102,1.2515591 72.639704,1.2515591 c -0.631191,0 -9.978444,0.8095396 -11.865986,1.0276799 -0.947649,0.1095183 -1.34895,0.069243 -1.15942,-0.1163608 C 59.773718,2.0067599 62.382414,1.6153358 65.4114,1.2930469 73.682997,0.41293576 74.771533,0.34001723 74.965014,0.65307362 75.0612,0.80870524 74.67313,2.1483363 74.10264,3.6300316 c -1.448742,3.7627188 -4.00282,9.3679474 -4.115107,9.0310894 -0.05141,-0.154222 0.824951,-2.54223 1.947458,-5.3066851 1.12251,-2.764455 2.003432,-5.0637765 1.957606,-5.1096032 C 73.846771,2.199006 60.180623,11.683688 43.523379,23.321903 0.47555515,53.398904 2.0780663,52.295956 2.0780663,51.847156 Z"
       id="path4193"
       inkscape:connector-curvature="0"
       transform="translate(255.68003,1137.7038)" />
    <path
       style="fill:#ff0000;fill-opacity:0.18139277;fill-rule:nonzero;stroke:#000000;stroke-width:0;stroke-miterlimit:4;stroke-dasharray:none;stroke-dashoffset:0;stroke-opacity:1"
       d="m 2.0780663,51.847156 c 0,-0.191779 5.8545817,-4.348003 38.4057967,-27.264635 C 73.091481,1.6261804 73.197895,1.5501316 72.995846,1.3480827 72.863324,1.2155608 63.514901,1.9308865 60.628791,2.294389 59.739281,2.4064218 59.416629,2.3640356 59.614298,2.161117 59.773718,1.9974627 62.382414,1.6041932 65.4114,1.2871846 73.835031,0.40558159 74.773556,0.343288 74.965014,0.65307362 75.0612,0.80870524 74.67313,2.1483363 74.10264,3.6300316 72.653898,7.3927504 70.09982,12.997979 69.987533,12.661121 69.936127,12.506899 70.812484,10.118891 71.934991,7.3544359 73.057501,4.5899809 73.939333,2.2915704 73.89462,2.2468571 73.849907,2.2021438 60.183759,11.686987 43.525405,23.324286 0.45286819,53.414171 2.0780663,52.295756 2.0780663,51.847156 Z"
       id="path4195"
       inkscape:connector-curvature="0"
       transform="translate(255.68003,1137.7038)" />
    <path
       style="fill:#ff0000;fill-opacity:0.18139277;fill-rule:nonzero;stroke:#000000;stroke-width:0;stroke-miterlimit:4;stroke-dasharray:none;stroke-dashoffset:0;stroke-opacity:1"
       d="m 2.0780663,51.847156 c 0,-0.190774 5.9797336,-4.438936 35.7971017,-25.431214 C 71.673614,2.6208709 72.75444,1.8540033 72.95873,1.5234547 73.05115,1.3739121 72.92557,1.2515591 72.679643,1.2515591 c -0.560861,0 -9.615632,0.794797 -11.760997,1.0323403 -1.090786,0.120776 -1.502672,0.082279 -1.304348,-0.1219097 0.15942,-0.1641342 2.768116,-0.5591359 5.797102,-0.8777815 8.96824,-0.943448 9.345237,-0.96829483 9.554492,-0.6297116 0.217267,0.3515443 -2.59111,7.5660912 -4.068658,10.4521354 -1.524289,2.977338 -1.160768,1.662211 1.035905,-3.7476329 1.115942,-2.748282 2.028985,-5.0574757 2.028985,-5.1315414 0,-0.1626159 1.364629,-1.1096139 -35.362319,24.5400333 C 4.3188511,50.708887 2.4916724,51.976197 2.2544752,51.976197 c -0.097025,0 -0.1764089,-0.05807 -0.1764089,-0.129041 z"
       id="path4197"
       inkscape:connector-curvature="0"
       transform="translate(255.68003,1137.7038)" />
    <path
       style="fill:#ff0000;fill-opacity:0.18139277;fill-rule:nonzero;stroke:#000000;stroke-width:0;stroke-miterlimit:4;stroke-dasharray:none;stroke-dashoffset:0;stroke-opacity:1"
       d="M 2.65093,51.359713 C 3.5175596,50.638681 12.922979,43.984803 45.4114,21.108754 71.537794,2.7123948 73.18122,1.5334563 72.979849,1.3320865 72.860101,1.2123384 63.987174,1.9138624 60.773718,2.2971448 59.769078,2.4169725 59.413371,2.3769783 59.614298,2.166785 59.773718,2.0000133 62.382414,1.6028538 65.4114,1.2842082 74.37964,0.3407602 74.756637,0.31591337 74.965892,0.6544966 75.183159,1.0060409 72.374782,8.2205878 70.897234,11.106632 69.371826,14.086157 69.737446,12.74437 71.922272,7.3448333 73.148324,4.3147983 73.780614,2.418609 73.533289,2.5135163 73.078234,2.6881367 70.738965,4.313418 32.802704,30.812368 18.056327,41.112895 5.1830492,50.088608 4.1954197,50.758397 2.3137046,52.034536 1.4230648,52.38129 2.65093,51.359713 Z"
       id="path4199"
       inkscape:connector-curvature="0"
       transform="translate(255.68003,1137.7038)" />
    <path
       style="fill:#ff0000;fill-opacity:0.18139277;fill-rule:nonzero;stroke:#000000;stroke-width:0;stroke-miterlimit:4;stroke-dasharray:none;stroke-dashoffset:0;stroke-opacity:1"
       d="M 2.65093,51.359713 C 3.5228887,50.634246 13.126207,43.840171 45.4114,21.107894 71.293481,2.8841007 73.179895,1.5321322 72.990255,1.3424928 72.873008,1.2252452 63.497475,1.960791 60.809116,2.2981489 59.910629,2.4108985 59.459597,2.3714375 59.571797,2.1898954 59.902945,1.6540824 74.451724,0.17594234 74.907579,0.63179643 75.208553,0.93277202 72.547649,7.8829339 70.897234,11.106632 69.371826,14.086157 69.737446,12.74437 71.922272,7.3448333 73.148324,4.3147983 73.780614,2.418609 73.533289,2.5135163 73.074174,2.6896953 70.29964,4.6174948 32.802704,30.813898 18.056327,41.11613 5.1830492,50.092194 4.1954197,50.760713 2.3120654,52.035536 1.4252522,52.379469 2.65093,51.359713 Z"
       id="path4201"
       inkscape:connector-curvature="0"
       transform="translate(255.68003,1137.7038)" />
    <path
       style="fill:#ff0000;fill-opacity:0.18139277;fill-rule:nonzero;stroke:#000000;stroke-width:0;stroke-miterlimit:4;stroke-dasharray:none;stroke-dashoffset:0;stroke-opacity:1"
       d="m 2.0780663,51.846211 c 0,-0.189892 7.7536678,-5.698417 36.9565217,-26.255434 C 75.562495,-0.12262829 73.661243,1.2479732 72.792353,1.2549835 c -0.233437,0.00188 -3.293997,0.261212 -6.801243,0.5762858 -3.507247,0.3150738 -6.435507,0.5744024 -6.507247,0.5762858 -0.07174,0.00188 -0.0065,-0.1171949 0.144928,-0.2646184 C 60.176321,1.6099602 74.475655,0.19987277 74.911646,0.63586228 75.208333,0.93255095 72.531571,7.9143397 70.897234,11.106632 69.361371,14.106579 69.743542,12.695491 71.920298,7.3291748 73.150226,4.2970565 73.777043,2.4199787 73.527687,2.515666 73.090452,2.6834488 70.470336,4.5046174 31.353429,31.8298 0.75628094,53.203487 2.0780663,52.299745 2.0780663,51.846211 Z"
       id="path4203"
       inkscape:connector-curvature="0"
       transform="translate(255.68003,1137.7038)" />
    <path
       style="fill:#ff0000;fill-opacity:0.18139277;fill-rule:nonzero;stroke:#000000;stroke-width:0;stroke-miterlimit:4;stroke-dasharray:none;stroke-dashoffset:0;stroke-opacity:1"
       d="M 2.3782733,51.570058 C 2.9869822,50.987585 4.8231413,49.68602 37.585313,26.613519 76.301072,-0.65175001 73.663579,1.2479543 72.792353,1.2549835 c -0.233437,0.00188 -3.293997,0.261212 -6.801243,0.5762858 -3.507247,0.3150738 -6.435507,0.5744024 -6.507247,0.5762858 -0.07174,0.00188 -0.0065,-0.1202148 0.144928,-0.2713292 0.312498,-0.311808 9.514649,-1.3856328 13.028985,-1.52038912 2.29047,-0.0878274 2.317916,-0.080492 2.243366,0.59954162 -0.157586,1.4374317 -4.726328,12.0075846 -4.928235,11.4018656 -0.05588,-0.167627 0.810696,-2.53261 1.925716,-5.2555199 1.115017,-2.7229096 1.946666,-4.9507447 1.848107,-4.9507447 -0.263481,0 0.240391,-0.3499887 -48.045475,33.3722236 C 14.860675,43.354121 5.1830492,50.094739 4.1954197,50.762353 2.4072831,51.97109 1.5704688,52.343049 2.3782733,51.570058 Z"
       id="path4205"
       inkscape:connector-curvature="0"
       transform="translate(255.68003,1137.7038)" />
    <path
       style="fill:#ff0000;fill-opacity:0.18139277;fill-rule:nonzero;stroke:#000000;stroke-width:0;stroke-miterlimit:4;stroke-dasharray:none;stroke-dashoffset:0;stroke-opacity:1"
       d="m 2.0780663,51.866095 c 0,-0.225771 3.7137681,-2.870707 31.5942027,-22.501289 C 69.317316,4.2671646 73.170504,1.5227416 73.000881,1.3531171 72.879139,1.231375 65.108003,1.8416183 60.918646,2.3018976 59.79933,2.4248756 59.410785,2.3853655 59.614298,2.1692615 59.934391,1.8293638 69.002272,0.74698112 72.657776,0.61233388 74.947391,0.52799794 74.975666,0.53559834 74.901142,1.2153784 74.743556,2.6528101 70.174814,13.222963 69.972907,12.617244 69.917031,12.449617 70.788866,10.071785 71.910316,7.333171 73.031762,4.5945574 73.782345,2.4179448 73.578275,2.4962542 73.148988,2.6609871 70.285374,4.6502594 33.382414,30.419206 0.68052833,53.254585 2.0780663,52.297119 2.0780663,51.866095 Z"
       id="path4207"
       inkscape:connector-curvature="0"
       transform="translate(255.68003,1137.7038)" />
    <path
       style="fill:#ff0000;fill-opacity:0.18139277;fill-rule:nonzero;stroke:#000000;stroke-width:0;stroke-miterlimit:4;stroke-dasharray:none;stroke-dashoffset:0;stroke-opacity:1"
       d="M 2.802704,51.23569 C 3.2809648,50.839878 16.38966,41.555301 31.933139,30.603301 68.940449,4.5277942 73.166084,1.5183213 73.002034,1.3542716 72.879385,1.231621 65.125034,1.8397471 60.918646,2.3018976 59.79933,2.4248756 59.410785,2.3853655 59.614298,2.1692615 59.934391,1.8293638 69.002272,0.74698112 72.657776,0.61233388 74.96011,0.52752944 74.976063,0.53192153 74.898672,1.2293249 74.736,2.6952262 70.178811,13.234957 69.973707,12.619641 c -0.05559,-0.166785 0.753838,-2.395496 1.798739,-4.9526906 1.044904,-2.5571942 1.899823,-4.7907728 1.899823,-4.9635079 0,-0.4125151 1.204815,-1.2400598 -35.652174,24.4882095 C 20.404153,39.488579 5.1830492,50.095663 4.1954197,50.76295 2.2175384,52.099292 1.4405226,52.363043 2.802704,51.23569 Z"
       id="path4209"
       inkscape:connector-curvature="0"
       transform="translate(255.68003,1137.7038)" />
    <path
       style="fill:#ff0000;fill-opacity:0.18139277;fill-rule:nonzero;stroke:#000000;stroke-width:0;stroke-miterlimit:4;stroke-dasharray:none;stroke-dashoffset:0;stroke-opacity:1"
       d="m 2.0780663,51.840411 c 0,-0.219301 1.6247963,-1.374904 32.6086957,-23.192276 C 69.929223,3.8320901 73.170347,1.5225829 72.997243,1.3494801 72.878359,1.2305973 65.053689,1.8475857 60.918646,2.3018976 59.79933,2.4248756 59.410785,2.3853655 59.614298,2.1692615 59.934391,1.8293638 69.002272,0.74698112 72.657776,0.61233388 74.96011,0.52752944 74.976063,0.53192153 74.898672,1.2293249 74.7354,2.700614 70.178559,13.234195 69.972617,12.616372 69.916423,12.447789 70.725855,10.211999 71.771356,7.6479493 72.816858,5.0839 73.672269,2.8517926 73.672269,2.6877103 73.672269,2.295679 74.86762,1.4740217 38.020095,27.194233 0.08572767,53.673081 2.0780663,52.306895 2.0780663,51.840411 Z"
       id="path4211"
       inkscape:connector-curvature="0"
       transform="translate(255.68003,1137.7038)" />
    <path
       style="fill:#ff0000;fill-opacity:0.18139277;fill-rule:nonzero;stroke:#000000;stroke-width:0;stroke-miterlimit:4;stroke-dasharray:none;stroke-dashoffset:0;stroke-opacity:1"
       d="m 2.0780663,51.840411 c 0,-0.219791 1.6495386,-1.393432 32.6086957,-23.200972 C 71.404223,2.7757657 73.167831,1.5200689 73.004689,1.3569274 72.93184,1.2840769 69.910678,1.4914361 66.290997,1.8177257 58.585368,2.5123354 59.285388,2.4788696 59.628791,2.1362259 59.94431,1.821406 69.189353,0.7400902 72.657776,0.61233388 74.96011,0.52752944 74.976063,0.53192153 74.898672,1.2293249 74.7354,2.700614 70.178559,13.234195 69.972617,12.616372 c -0.05619,-0.168583 0.753238,-2.404373 1.798739,-4.9684227 1.045502,-2.5640493 1.900913,-4.7961567 1.900913,-4.960239 0,-0.3905014 1.276368,-1.267896 -35.652174,24.5078137 C 0.09522648,53.666658 2.0780663,52.307055 2.0780663,51.840411 Z"
       id="path4213"
       inkscape:connector-curvature="0"
       transform="translate(255.68003,1137.7038)" />
    <path
       style="fill:#ff0000;fill-opacity:0.18139277;fill-rule:nonzero;stroke:#000000;stroke-width:0;stroke-miterlimit:4;stroke-dasharray:none;stroke-dashoffset:0;stroke-opacity:1"
       d="m 2.0780663,51.840411 c 0,-0.221148 1.7723392,-1.482739 31.1594207,-22.179991 C 69.662814,4.0061487 73.16382,1.516057 73.015823,1.3680607 72.947811,1.3000494 69.935263,1.5068833 66.321269,1.8276916 58.631342,2.5103136 59.284031,2.4802236 59.628791,2.1362259 59.94431,1.821406 69.189353,0.7400902 72.657776,0.61233388 74.96011,0.52752944 74.976063,0.53192153 74.898672,1.2293249 74.7354,2.700614 70.178559,13.234195 69.972617,12.616372 c -0.05619,-0.168583 0.753238,-2.404373 1.798739,-4.9684227 1.045502,-2.5640493 1.900913,-4.7961567 1.900913,-4.960239 0,-0.3899018 1.308476,-1.2894132 -35.652174,24.5091037 C 0.15280254,53.628171 2.0780663,52.308116 2.0780663,51.840411 Z"
       id="path4215"
       inkscape:connector-curvature="0"
       transform="translate(255.68003,1137.7038)" />
  </g>
</svg>
