<?xml version="1.0" encoding="UTF-8" standalone="no"?>
<!-- Created with Inkscape (http://www.inkscape.org/) -->

<svg
   xmlns:dc="http://purl.org/dc/elements/1.1/"
   xmlns:cc="http://creativecommons.org/ns#"
   xmlns:rdf="http://www.w3.org/1999/02/22-rdf-syntax-ns#"
   xmlns:svg="http://www.w3.org/2000/svg"
   xmlns="http://www.w3.org/2000/svg"
   xmlns:sodipodi="http://sodipodi.sourceforge.net/DTD/sodipodi-0.dtd"
   xmlns:inkscape="http://www.inkscape.org/namespaces/inkscape"
   width="33.563015mm"
   height="14.507363mm"
   viewBox="0 0 118.92407 51.404043"
   id="svg4276"
   version="1.1"
   inkscape:version="0.91 r13725"
   sodipodi:docname="Quality - Copy.svg">
  <defs
     id="defs4278">
    <marker
       inkscape:isstock="true"
       style="overflow:visible"
       id="Arrow1Lstart"
       refX="0"
       refY="0"
       orient="auto"
       inkscape:stockid="Arrow1Lstart">
      <path
         transform="matrix(0.8,0,0,0.8,10,0)"
         style="fill-rule:evenodd;stroke:#000000;stroke-width:1pt"
         d="M 0,0 5,-5 -12.5,0 5,5 0,0 Z"
         id="path4257"
         inkscape:connector-curvature="0" />
    </marker>
  </defs>
  <sodipodi:namedview
     id="base"
     pagecolor="#ffffff"
     bordercolor="#666666"
     borderopacity="1.0"
     inkscape:pageopacity="0.0"
     inkscape:pageshadow="2"
     inkscape:zoom="1.979899"
     inkscape:cx="-57.672199"
     inkscape:cy="-1.1455362"
     inkscape:document-units="px"
     inkscape:current-layer="layer1"
     showgrid="false"
     fit-margin-top="0"
     fit-margin-left="0"
     fit-margin-right="0"
     fit-margin-bottom="0"
     inkscape:window-width="1920"
     inkscape:window-height="1017"
     inkscape:window-x="-8"
     inkscape:window-y="-8"
     inkscape:window-maximized="1" />
  <metadata
     id="metadata4281">
    <rdf:RDF>
      <cc:Work
         rdf:about="">
        <dc:format>image/svg+xml</dc:format>
        <dc:type
           rdf:resource="http://purl.org/dc/dcmitype/StillImage" />
        <dc:title />
      </cc:Work>
    </rdf:RDF>
  </metadata>
  <g
     inkscape:label="Camada 1"
     inkscape:groupmode="layer"
     id="layer1"
     transform="translate(-217.34365,-1085.7903)">
    <g
       style="fill:#ffffff;stroke:none"
       transform="matrix(1.0201358,0,0,0.93481227,217.65492,1097.2998)"
       id="v-88"
       class="scalable">
      <path
         style="fill:#cdfecd;stroke:#000000;stroke-width:2"
         inkscape:connector-curvature="0"
         d="m 60.637955,-4.0358 c 17.5174,2.2042 29.9953,-10.69554 41.892705,-4.7858 22.34142,10.8714 11.2203,43.7743 -2.25,47.7322 -8.276505,2.9084 -13.960205,5.1934 -46.142805,-2.1786 -6.7454,-2.2317 -28.2652,6.0799 -35.4643,4.7143 C 9.072156,39.4809 6.491756,33.7693 3.744956,28.482 c -6.3069,-15.1266 -2.5738,-28.0439 7.981099,-34.7856 10.5549,-6.74179 27.9316,-7.30796 48.9119,2.2678 z"
         id="v-89" />
    </g>
    <path
       style="fill:#2a7fff;fill-opacity:0.18139277;fill-rule:nonzero;stroke:#000000;stroke-width:0;stroke-miterlimit:4;stroke-dasharray:none;stroke-dashoffset:0;stroke-opacity:1"
       d="M 84.153217,49.167331 C 79.359442,48.867492 70.059317,47.50079 61.929861,45.901492 52.286764,44.004418 50.051854,44.093197 35.529337,46.95022 23.540904,49.308711 19.835969,49.492986 15.608061,47.941058 5.2472035,44.137923 -0.95136416,26.625968 4.2927875,15.973583 11.435085,1.465517 32.602992,-1.9185086 57.956437,7.3945978 62.943186,9.2263847 63.128579,9.2542038 68.416162,8.9640895 71.756534,8.780813 75.619878,8.1768034 78.597378,7.3723194 94.583578,3.0530457 94.950202,2.9755975 98.547891,3.1578215 105.30123,3.4998799 111.91327,8.0499019 114.7454,14.304006 c 1.85085,4.087176 2.26231,10.583457 0.98282,15.517141 -1.80142,6.946264 -6.66512,13.761651 -11.48636,16.095574 -4.779619,2.313773 -13.223065,3.680035 -20.088643,3.25061 z"
       id="path4143"
       inkscape:connector-curvature="0"
       transform="translate(217.34365,1085.7903)" />
    <path
       style="fill:#2a7fff;fill-opacity:0.18139277;fill-rule:nonzero;stroke:#000000;stroke-width:0;stroke-miterlimit:4;stroke-dasharray:none;stroke-dashoffset:0;stroke-opacity:1"
       d="m 85.53298,49.239995 c -0.06439,-0.05081 -2.048989,-0.23849 -4.41022,-0.417074 -4.991502,-0.377516 -4.903427,-0.364165 -17.322641,-2.625709 -5.221676,-0.950869 -10.712476,-1.728853 -12.201778,-1.728853 -1.489303,0 -7.559126,0.889842 -13.488496,1.977426 C 24.808019,48.885648 21.021636,49.27136 17.735688,48.52126 10.334312,46.831712 4.3442659,38.886044 2.7523003,28.64612 1.690819,21.818405 3.3212103,16.037051 7.6732247,11.196563 15.826112,2.1285901 30.497186,-0.11126794 49.473709,4.8148116 53.129983,5.7639375 57.598832,7.1475307 59.40448,7.889463 64.459925,9.966723 70.02836,9.5051898 84.405755,5.8172616 94.153,3.3170078 95.92056,3.0019714 98.800429,3.2516676 105.75128,3.8543349 112.58345,8.862854 115.06371,15.173936 c 1.66614,4.239553 1.62336,12.752354 -0.085,16.920055 -4.19093,10.223985 -9.32182,14.620631 -18.885298,16.182801 -3.684668,0.601881 -10.258427,1.201467 -10.560392,0.963203 z"
       id="path4145"
       inkscape:connector-curvature="0"
       transform="translate(217.34365,1085.7903)" />
    <path
       style="fill:#2a7fff;fill-opacity:0.18139277;fill-rule:nonzero;stroke:#000000;stroke-width:0;stroke-miterlimit:4;stroke-dasharray:none;stroke-dashoffset:0;stroke-opacity:1"
       d="M 18.444289,48.502284 C 10.728571,47.197811 4.3395588,38.907823 2.8261926,28.237204 1.4704189,18.677757 6.0501156,10.297425 15.051196,5.8668164 20.666411,3.1028351 24.88149,2.3985543 33.898129,2.7177571 42.448313,3.0204467 47.082141,3.9190489 56.840723,7.1668357 62.984905,9.2117021 63.221958,9.2490283 68.204939,8.9562502 71.911431,8.7384734 76.10713,7.9465093 83.648141,6.0412525 95.082982,3.1522084 98.833522,2.8159524 103.2523,4.2836342 c 5.16644,1.7160164 9.8144,6.1974778 11.73441,11.3140558 1.59163,4.241488 1.52675,11.753041 -0.14082,16.304154 -4.28323,11.68974 -10.84848,16.114683 -25.136834,16.942096 -6.232444,0.36091 -12.013274,-0.239402 -25.427524,-2.640528 -12.942177,-2.316625 -11.956751,-2.347039 -31.141018,0.961101 -9.245643,1.594321 -11.802256,1.827045 -14.696225,1.337771 z"
       id="path4147"
       inkscape:connector-curvature="0"
       transform="translate(217.34365,1085.7903)" />
    <path
       style="fill:#2a7fff;fill-opacity:0.18139277;fill-rule:nonzero;stroke:#000000;stroke-width:0;stroke-miterlimit:4;stroke-dasharray:none;stroke-dashoffset:0;stroke-opacity:1"
       d="m 77.334688,48.240335 c -2.77792,-0.36306 -9.022284,-1.360279 -13.876365,-2.216042 -4.854081,-0.855764 -10.109455,-1.555934 -11.678607,-1.555934 -1.569154,0 -8.279997,0.922083 -14.912983,2.049072 C 19.021544,49.549451 15.621772,49.191906 10.100371,43.702482 7.2090267,40.827884 4.3071531,35.302134 3.3312938,30.8128 2.3591731,26.340666 2.8580719,20.007314 4.4525346,16.579025 7.081594,10.926226 12.417729,6.4874813 19.380245,4.1617432 22.942965,2.971663 24.034208,2.8535875 31.625285,2.8367967 41.100617,2.8158382 45.529928,3.5814429 56.77922,7.1846442 62.896254,9.1439598 63.41423,9.226762 67.990777,8.9768821 71.256943,8.7985492 76.336925,7.8757158 83.900679,6.0866791 97.023202,2.9828396 100.53993,2.8510964 105.30722,5.2847496 c 3.75748,1.9181521 7.3603,5.4402654 9.01816,8.8161324 1.30982,2.667165 1.3941,3.24219 1.37875,9.406812 -0.0187,7.506706 -0.60998,9.509276 -4.56384,15.456736 -3.76346,5.661057 -8.91652,8.388729 -17.999357,9.527621 -5.223483,0.65497 -9.374639,0.588862 -15.806245,-0.251716 z"
       id="path4149"
       inkscape:connector-curvature="0"
       transform="translate(217.34365,1085.7903)" />
    <path
       style="fill:#4c9dec;fill-opacity:1;fill-rule:nonzero;stroke:#000000;stroke-width:0;stroke-miterlimit:4;stroke-dasharray:none;stroke-dashoffset:0;stroke-opacity:1"
       d="M 79.541755,48.50549 C 77.422142,48.261782 71.626391,47.356988 66.66231,46.494837 52.622195,44.056378 51.387274,44.047024 38.191277,46.279178 24.06474,48.668737 17.886003,48.875404 14.503949,47.071476 7.363169,43.26271 2.4160771,33.247705 2.9590863,23.699797 3.280738,18.044088 4.7980716,14.646219 8.780269,10.664021 15.229197,4.2150931 22.517384,2.2286354 36.588008,3.0847843 43.832823,3.5256063 47.281156,4.2320768 56.595044,7.1836866 62.958172,9.2001874 63.262793,9.2464377 68.211798,8.9474649 71.31477,8.7600124 76.244632,7.9346516 80.870222,6.8281824 96.670714,3.0486103 99.84576,2.8344843 104.95801,5.2036941 c 8.51426,3.9458331 12.42185,12.5885589 10.55041,23.3351679 -1.21476,6.975654 -6.16968,14.176239 -11.64902,16.928579 -5.445097,2.735139 -15.752446,4.022855 -24.317645,3.038049 z"
       id="path4151"
       inkscape:connector-curvature="0"
       transform="translate(217.34365,1085.7903)" />
  </g>
</svg>
